<?xml version="1.0" standalone="no"?>
<svg viewBox="0 0 200 200" xmlns="http://www.w3.org/2000/svg">
  <path fill="#FF4500" d="M49.2,-63.5C62.9,-57.8,72.5,-42.2,79.4,-24.9C86.2,-7.6,90.3,11.5,85.1,27.7C80,43.9,65.6,57.3,49.9,68.1C34.2,78.9,17.1,87.3,3.2,82.9C-10.7,78.5,-21.4,61.3,-34.9,49.8C-48.4,38.2,-64.8,32.3,-74.2,20.2C-83.6,8,-85.9,-10.3,-78.6,-23.2C-71.2,-36.1,-54.1,-43.5,-39.4,-48.9C-24.7,-54.3,-12.3,-57.6,2.7,-61.4C17.8,-65.1,35.5,-69.2,49.2,-63.5Z" transform="translate(100 100)" />
</svg>
